<?xml version="1.0" encoding="utf-8"?>
<!-- Generator: Adobe Illustrator 19.0.0, SVG Export Plug-In . SVG Version: 6.00 Build 0)  -->
<svg version="1.1" id="Layer_1" xmlns="http://www.w3.org/2000/svg" xmlns:xlink="http://www.w3.org/1999/xlink" x="0px" y="0px"
	 viewBox="0 0 431.3 413.3" style="enable-background:new 0 0 431.3 413.3;" xml:space="preserve">
<style type="text/css">
	.st0{fill:#FFFFFF;}
</style>
<g>
	<path class="st0" d="M368.4,413.3H260.6c-5,0-9-4-9-9V287.5h-71.9v116.8c0,5-4,9-9,9H62.9c-5,0-9-4-9-9V224.6c0-5,4-9,9-9
		c5,0,9,4,9,9v170.7h89.8V278.5c0-5,4-9,9-9h89.8c5,0,9,4,9,9v116.8h89.8V233.6c0-5,4-9,9-9c5,0,9,4,9,9v170.7
		C377.4,409.3,373.3,413.3,368.4,413.3L368.4,413.3z M422.3,224.6c-2.3,0-4.6-0.9-6.4-2.6L215.6,21.7L15.3,222
		c-3.5,3.5-9.2,3.5-12.7,0c-3.5-3.5-3.5-9.2,0-12.7L209.3,2.6c3.5-3.5,9.2-3.5,12.7,0l206.6,206.6c3.5,3.5,3.5,9.2,0,12.7
		C426.9,223.7,424.6,224.6,422.3,224.6L422.3,224.6z M350.4,98.8c-5,0-9-4-9-9V35.9h-53.9c-5,0-9-4-9-9c0-5,4-9,9-9h62.9
		c5,0,9,4,9,9v62.9C359.4,94.8,355.4,98.8,350.4,98.8L350.4,98.8z M350.4,98.8"/>
</g>
</svg>
