<?xml version="1.0" encoding="utf-8"?>
<!-- Generator: Adobe Illustrator 19.0.0, SVG Export Plug-In . SVG Version: 6.00 Build 0)  -->
<svg version="1.1" id="Layer_1" xmlns="http://www.w3.org/2000/svg" xmlns:xlink="http://www.w3.org/1999/xlink" x="0px" y="0px"
	 viewBox="0 0 1037.5 223.5" style="enable-background:new 0 0 1037.5 223.5;" xml:space="preserve">
<style type="text/css">
	.st0{fill:#FFFFFF;}
</style>
<g id="XMLID_4_">
	<g id="XMLID_1_">
		<path id="XMLID_3_" class="st0" d="M49.8,223.5c0,0,62.5-68,185.4-69.2c0,0-142.2-35.7-235.2,69.2H49.8z"/>
		<polygon id="XMLID_6_" class="st0" points="0,223.5 49.8,223.5 70.1,173.7 87.5,130.6 117,58.6 140.1,0 95.1,0 		"/>
		<polygon id="XMLID_2_" class="st0" points="184.2,223.5 235.2,223.5 140.1,0 117,58.6 146.4,130.6 163.9,173.7 		"/>
	</g>
	<g id="XMLID_7_">
		<path id="XMLID_45_" class="st0" d="M301.2,36.7h19v69.1h43.1v17.3h-62.1V36.7z"/>
		<path id="XMLID_47_" class="st0" d="M368.8,80.1v-0.2c0-24.6,19.4-44.7,46-44.7c26.7,0,45.8,19.9,45.8,44.4v0.2
			c0,24.6-19.4,44.7-46,44.7C388,124.5,368.8,104.7,368.8,80.1z M440.8,80.1v-0.2c0-14.8-10.9-27.2-26.2-27.2
			c-15.3,0-25.9,12.1-25.9,26.9v0.2c0,14.8,10.9,27.2,26.2,27.2C430.2,107,440.8,94.9,440.8,80.1z"/>
		<path id="XMLID_50_" class="st0" d="M473.8,80.1v-0.2c0-24.6,19.1-44.7,45.3-44.7c15.6,0,24.9,4.2,33.9,11.9l-12,14.4
			c-6.7-5.6-12.6-8.8-22.6-8.8c-13.8,0-24.8,12.2-24.8,26.9v0.2c0,15.8,10.9,27.4,26.2,27.4c6.9,0,13.1-1.7,17.9-5.2V89.7h-19.1
			V73.3h37.5v37.5c-8.9,7.5-21.1,13.7-36.9,13.7C492.3,124.5,473.8,105.7,473.8,80.1z"/>
		<path id="XMLID_52_" class="st0" d="M570.5,80.1v-0.2c0-24.6,19.4-44.7,46-44.7c26.7,0,45.8,19.9,45.8,44.4v0.2
			c0,24.6-19.4,44.7-46,44.7C589.7,124.5,570.5,104.7,570.5,80.1z M642.5,80.1v-0.2c0-14.8-10.9-27.2-26.2-27.2
			c-15.3,0-25.9,12.1-25.9,26.9v0.2c0,14.8,10.9,27.2,26.2,27.2C631.9,107,642.5,94.9,642.5,80.1z"/>
		<path id="XMLID_55_" class="st0" d="M736.5,54.2h-26.3V36.7h71.6v17.5h-26.3v68.9h-19V54.2z"/>
		<path id="XMLID_57_" class="st0" d="M796.3,36.7h65.2v16.9h-46.3v17.5H856V88h-40.7v18.1h46.9v16.9h-65.8V36.7z"/>
		<path id="XMLID_59_" class="st0" d="M902.6,79.1l-28.9-42.5H896l18,28l18.4-28H954l-28.9,42.2l30.1,44.2H933l-19.4-29.6
			l-19.5,29.6h-21.6L902.6,79.1z"/>
		<path id="XMLID_61_" class="st0" d="M989.5,54.2h-26.3V36.7h71.6v17.5h-26.3v68.9h-19V54.2z"/>
	</g>
	<g id="XMLID_5_">
		<path id="XMLID_8_" class="st0" d="M301.5,179.8v6.7h-3v-44.3h3v20.3c2.7-4.1,6.6-7.6,12.7-7.6c7.5,0,15,6,15,16.1v0.1
			c0,10.1-7.6,16.2-15,16.2C308,187.2,304,183.7,301.5,179.8z M326,171.1V171c0-8.1-5.6-13.3-12.1-13.3c-6.4,0-12.6,5.4-12.6,13.3
			v0.1c0,7.9,6.2,13.3,12.6,13.3C320.7,184.4,326,179.4,326,171.1z"/>
		<path id="XMLID_11_" class="st0" d="M356.1,174.5v-18.9h3v18.4c0,6.4,3.6,10.6,9.8,10.6c6.1,0,10.7-4.6,10.7-11v-17.9h3v30.9h-3
			v-5.8c-2.1,3.6-5.5,6.5-11.2,6.5C360.7,187.2,356.1,181.9,356.1,174.5z"/>
		<path id="XMLID_13_" class="st0" d="M409.4,182.6l1.8-2.4c3.4,2.6,7.2,4.1,11.1,4.1c4.2,0,7.5-2.3,7.5-5.9v-0.1
			c0-3.6-3.9-5-8.2-6.2c-5-1.5-10.6-3-10.6-8.5v-0.1c0-5,4.2-8.6,10.2-8.6c3.7,0,7.9,1.3,11,3.4l-1.6,2.5c-2.9-1.9-6.2-3.1-9.5-3.1
			c-4.2,0-7,2.3-7,5.4v0.1c0,3.5,4.2,4.7,8.6,6c5,1.4,10.2,3.2,10.2,8.7v0.1c0,5.5-4.7,9-10.7,9
			C417.6,187.1,412.7,185.3,409.4,182.6z"/>
		<path id="XMLID_15_" class="st0" d="M460.5,143.4h3.7v4.1h-3.7V143.4z M460.9,155.6h3v30.9h-3V155.6z"/>
		<path id="XMLID_18_" class="st0" d="M493.7,155.6h3v5.8c2.1-3.6,5.5-6.5,11.2-6.5c7.8,0,12.4,5.3,12.4,12.7v18.9h-3v-18.4
			c0-6.4-3.6-10.6-9.8-10.6c-6.1,0-10.7,4.6-10.7,11v17.9h-3V155.6z"/>
		<path id="XMLID_20_" class="st0" d="M547,171.1V171c0-9,6.3-16.1,14.7-16.1c8.7,0,14.2,7,14.2,16.2c0,0.5,0,0.7-0.1,1.2h-25.6
			c0.5,7.7,6.1,12.2,12.1,12.2c4.8,0,8.1-2.1,10.6-4.9l2.1,1.8c-3.2,3.4-6.9,5.8-12.8,5.8C554,187.2,547,180.7,547,171.1z
			 M572.6,169.6c-0.4-6.2-4-12-11.1-12c-6.1,0-10.9,5.2-11.4,12H572.6z"/>
		<path id="XMLID_23_" class="st0" d="M600,182.6l1.8-2.4c3.4,2.6,7.2,4.1,11.1,4.1c4.2,0,7.5-2.3,7.5-5.9v-0.1c0-3.6-3.9-5-8.2-6.2
			c-5-1.5-10.6-3-10.6-8.5v-0.1c0-5,4.2-8.6,10.2-8.6c3.7,0,7.9,1.3,11,3.4l-1.6,2.5c-2.8-1.9-6.2-3.1-9.5-3.1c-4.2,0-7,2.3-7,5.4
			v0.1c0,3.5,4.2,4.7,8.6,6c5,1.4,10.2,3.2,10.2,8.7v0.1c0,5.5-4.7,9-10.7,9C608.2,187.1,603.3,185.3,600,182.6z"/>
		<path id="XMLID_25_" class="st0" d="M647.8,182.6l1.8-2.4c3.4,2.6,7.2,4.1,11.1,4.1c4.2,0,7.5-2.3,7.5-5.9v-0.1
			c0-3.6-3.9-5-8.2-6.2c-5-1.5-10.6-3-10.6-8.5v-0.1c0-5,4.2-8.6,10.2-8.6c3.7,0,7.9,1.3,11,3.4l-1.6,2.5c-2.9-1.9-6.2-3.1-9.5-3.1
			c-4.2,0-7,2.3-7,5.4v0.1c0,3.5,4.2,4.7,8.6,6c5,1.4,10.2,3.2,10.2,8.7v0.1c0,5.5-4.7,9-10.7,9C655.9,187.1,651,185.3,647.8,182.6z
			"/>
		<path id="XMLID_27_" class="st0" d="M736.8,178.5v-20.3h-4.5v-2.7h4.5v-9.9h3v9.9h10.9v2.7h-10.9v19.9c0,4.4,2.6,6,6.2,6
			c1.5,0,2.8-0.3,4.5-1.1v2.8c-1.6,0.7-3.1,1.1-5,1.1C740.7,187,736.8,184.4,736.8,178.5z"/>
		<path id="XMLID_29_" class="st0" d="M775,177.5v-0.1c0-6.4,5.5-10.1,13.5-10.1c4.3,0,7.3,0.5,10.2,1.3v-1.3
			c0-6.2-3.8-9.5-10.2-9.5c-3.8,0-6.9,1-9.7,2.5l-1.1-2.6c3.4-1.6,6.7-2.7,11-2.7c4.2,0,7.5,1.2,9.8,3.4c2.1,2.1,3.2,4.9,3.2,8.7
			v19.3h-2.9v-5.2c-2.1,3-5.9,5.9-11.8,5.9C781.2,187.2,775,183.9,775,177.5z M798.9,174.9v-3.5c-2.6-0.7-6.1-1.4-10.5-1.4
			c-6.5,0-10.2,2.9-10.2,7.2v0.1c0,4.5,4.2,7.1,9,7.1C793.5,184.4,798.9,180.5,798.9,174.9z"/>
		<path id="XMLID_32_" class="st0" d="M830,191.6l1.8-2.4c3.7,2.9,7.9,4.4,12.5,4.4c7.1,0,12.1-4.1,12.1-12V177
			c-2.7,3.8-6.8,7.2-12.9,7.2c-7.5,0-14.9-5.7-14.9-14.6v-0.1c0-8.9,7.4-14.7,14.9-14.7c6.2,0,10.4,3.3,12.9,6.9v-6.2h3v26.1
			c0,4.5-1.5,8-3.9,10.5c-2.7,2.7-6.7,4.1-11.2,4.1C839,196.3,834.2,194.7,830,191.6z M856.5,169.6v-0.1c0-7.2-6.4-11.8-12.8-11.8
			c-6.5,0-11.9,4.5-11.9,11.7v0.1c0,7,5.6,11.8,11.9,11.8C850.2,181.3,856.5,176.6,856.5,169.6z"/>
		<path id="XMLID_35_" class="st0" d="M889.2,142.2h3v44.3h-3V142.2z"/>
		<path id="XMLID_37_" class="st0" d="M922.2,143.4h3.7v4.1h-3.7V143.4z M922.5,155.6h3v30.9h-3V155.6z"/>
		<path id="XMLID_40_" class="st0" d="M955.4,155.6h3v5.8c2.1-3.6,5.5-6.5,11.2-6.5c7.8,0,12.4,5.3,12.4,12.7v18.9h-3v-18.4
			c0-6.4-3.6-10.6-9.8-10.6c-6.1,0-10.7,4.6-10.7,11v17.9h-3V155.6z"/>
		<path id="XMLID_42_" class="st0" d="M1008.6,171.1V171c0-9,6.3-16.1,14.7-16.1c8.7,0,14.2,7,14.2,16.2c0,0.5,0,0.7-0.1,1.2h-25.6
			c0.5,7.7,6.1,12.2,12.1,12.2c4.8,0,8.1-2.1,10.6-4.9l2.1,1.8c-3.2,3.4-6.9,5.8-12.8,5.8C1015.7,187.2,1008.6,180.7,1008.6,171.1z
			 M1034.3,169.6c-0.4-6.2-4-12-11.1-12c-6.1,0-10.9,5.2-11.4,12H1034.3z"/>
	</g>
</g>
</svg>
